<svg width="310" height="28" viewBox="0 0 310 28" fill="none" xmlns="http://www.w3.org/2000/svg">
<path d="M12.2148 3.81641C12.6576 3.81641 12.9701 3.92057 13.1523 4.12891C13.3477 4.32422 13.4453 4.66276 13.4453 5.14453C13.4453 5.6263 13.3477 5.97135 13.1523 6.17969C12.9701 6.375 12.6576 6.47266 12.2148 6.47266H7.48828V24.3438H17.1562V17.918C17.1562 17.4622 17.2669 17.1367 17.4883 16.9414C17.7096 16.7461 18.0872 16.6484 18.6211 16.6484C19.1549 16.6484 19.5326 16.7461 19.7539 16.9414C19.9753 17.1367 20.0859 17.4622 20.0859 17.918V25.6719C20.0859 26.1536 19.9883 26.4987 19.793 26.707C19.6107 26.9023 19.2982 27 18.8555 27H1.39453C0.951823 27 0.632812 26.9023 0.4375 26.707C0.255208 26.4987 0.164062 26.1536 0.164062 25.6719C0.164062 25.1901 0.255208 24.8516 0.4375 24.6562C0.632812 24.4479 0.951823 24.3438 1.39453 24.3438H4.55859V6.47266H1.39453C0.951823 6.47266 0.632812 6.375 0.4375 6.17969C0.255208 5.97135 0.164062 5.6263 0.164062 5.14453C0.164062 4.66276 0.255208 4.32422 0.4375 4.12891C0.632812 3.92057 0.951823 3.81641 1.39453 3.81641H12.2148ZM34.6562 8.52344C37.1042 8.52344 38.9401 9.07031 40.1641 10.1641C41.388 11.2578 42 12.8789 42 15.0273V22.8008C42 23.8294 42.4297 24.3438 43.2891 24.3438H43.9727C44.4154 24.3438 44.7279 24.4479 44.9102 24.6562C45.1055 24.8516 45.2031 25.1901 45.2031 25.6719C45.2031 26.1536 45.1055 26.4987 44.9102 26.707C44.7279 26.9023 44.4154 27 43.9727 27H42.7227C41.8763 27 41.1471 26.7917 40.5352 26.375C39.9362 25.9453 39.5456 25.3203 39.3633 24.5C38.2956 25.4375 37.1367 26.1602 35.8867 26.668C34.6497 27.1758 33.3346 27.4297 31.9414 27.4297C30.6263 27.4297 29.4609 27.2083 28.4453 26.7656C27.4427 26.3099 26.6549 25.6523 26.082 24.793C25.5091 23.9336 25.2227 22.9115 25.2227 21.7266C25.2227 19.6693 25.9583 18.1523 27.4297 17.1758C28.901 16.1862 30.8021 15.6914 33.1328 15.6914C35.2031 15.6914 37.1823 16.0234 39.0703 16.6875V15.0273C39.0703 13.7643 38.7122 12.8398 37.9961 12.2539C37.293 11.6549 36.1536 11.3555 34.5781 11.3555C33.6016 11.3555 32.5859 11.4922 31.5312 11.7656C30.4766 12.0391 29.474 12.4167 28.5234 12.8984C28.3021 13.0156 28.1003 13.0742 27.918 13.0742C27.4883 13.0742 27.1302 12.7617 26.8438 12.1367C26.7005 11.8242 26.6289 11.5638 26.6289 11.3555C26.6289 10.8997 26.8698 10.5482 27.3516 10.3008C28.4453 9.72786 29.6172 9.29167 30.8672 8.99219C32.1302 8.67969 33.3932 8.52344 34.6562 8.52344ZM33.1523 18.4453C31.6549 18.4453 30.4701 18.7057 29.5977 19.2266C28.7383 19.7344 28.3086 20.5482 28.3086 21.668C28.3086 22.6185 28.6341 23.3607 29.2852 23.8945C29.9492 24.4154 30.8737 24.6758 32.0586 24.6758C34.6497 24.6758 36.987 23.6016 39.0703 21.4531V19.3242C38.1849 19.0378 37.2344 18.8229 36.2188 18.6797C35.2031 18.5234 34.181 18.4453 33.1523 18.4453ZM64.5391 8.52344C65.5547 8.52344 66.5052 8.78385 67.3906 9.30469C67.9115 9.61719 68.1719 10.0208 68.1719 10.5156C68.1719 10.75 68.1133 11.0234 67.9961 11.3359C67.7227 12.0781 67.3451 12.4492 66.8633 12.4492C66.668 12.4492 66.4857 12.3971 66.3164 12.293C65.6784 11.9414 64.9948 11.7656 64.2656 11.7656C63.0938 11.7656 61.9154 12.1758 60.7305 12.9961C59.5456 13.8034 58.569 14.8841 57.8008 16.2383C57.0456 17.5924 56.668 19.0312 56.668 20.5547V24.3438H63.25C63.6927 24.3438 64.0052 24.4479 64.1875 24.6562C64.3828 24.8516 64.4805 25.1901 64.4805 25.6719C64.4805 26.1536 64.3828 26.4987 64.1875 26.707C64.0052 26.9023 63.6927 27 63.25 27H50.6719C50.2292 27 49.9102 26.9023 49.7148 26.707C49.5326 26.4987 49.4414 26.1536 49.4414 25.6719C49.4414 25.1901 49.5326 24.8516 49.7148 24.6562C49.9102 24.4479 50.2292 24.3438 50.6719 24.3438H53.7383V11.6094H51.2578C50.8151 11.6094 50.4961 11.5117 50.3008 11.3164C50.1185 11.1081 50.0273 10.763 50.0273 10.2812C50.0273 9.79948 50.1185 9.46094 50.3008 9.26562C50.4961 9.05729 50.8151 8.95312 51.2578 8.95312H55.2422C55.6849 8.95312 55.9974 9.05729 56.1797 9.26562C56.375 9.46094 56.4727 9.79948 56.4727 10.2812V14.2266C57.0977 13.0807 57.8529 12.0781 58.7383 11.2188C59.6237 10.3594 60.5677 9.69531 61.5703 9.22656C62.5729 8.75781 63.5625 8.52344 64.5391 8.52344ZM83.25 8.95312C83.6927 8.95312 84.0052 9.05729 84.1875 9.26562C84.3828 9.46094 84.4805 9.79948 84.4805 10.2812V24.3438H90.75C91.1927 24.3438 91.5052 24.4479 91.6875 24.6562C91.8828 24.8516 91.9805 25.1901 91.9805 25.6719C91.9805 26.1536 91.8828 26.4987 91.6875 26.707C91.5052 26.9023 91.1927 27 90.75 27H75.4375C74.9948 27 74.6758 26.9023 74.4805 26.707C74.2982 26.4987 74.207 26.1536 74.207 25.6719C74.207 25.1901 74.2982 24.8516 74.4805 24.6562C74.6758 24.4479 74.9948 24.3438 75.4375 24.3438H81.5508V11.6094H76.6094C76.1667 11.6094 75.8477 11.5117 75.6523 11.3164C75.4701 11.1081 75.3789 10.763 75.3789 10.2812C75.3789 9.79948 75.4701 9.46094 75.6523 9.26562C75.8477 9.05729 76.1667 8.95312 76.6094 8.95312H83.25ZM82.625 0.378906C83.3411 0.378906 83.8294 0.476562 84.0898 0.671875C84.3503 0.854167 84.4805 1.17969 84.4805 1.64844V4.1875C84.4805 4.65625 84.3503 4.98828 84.0898 5.18359C83.8294 5.36589 83.3411 5.45703 82.625 5.45703C81.9089 5.45703 81.4206 5.36589 81.1602 5.18359C80.8997 4.98828 80.7695 4.65625 80.7695 4.1875V1.64844C80.7695 1.17969 80.8997 0.854167 81.1602 0.671875C81.4206 0.476562 81.9089 0.378906 82.625 0.378906ZM112.684 8.52344C113.217 8.52344 113.595 8.62109 113.816 8.81641C114.038 9.01172 114.148 9.33724 114.148 9.79297V13.5039C114.148 13.9596 114.038 14.2852 113.816 14.4805C113.595 14.6758 113.217 14.7734 112.684 14.7734C112.241 14.7734 111.928 14.6042 111.746 14.2656C111.186 13.1979 110.372 12.4492 109.305 12.0195C108.237 11.5768 106.883 11.3555 105.242 11.3555C103.979 11.3555 102.99 11.5833 102.273 12.0391C101.57 12.4818 101.219 13.1068 101.219 13.9141C101.219 14.3307 101.349 14.6693 101.609 14.9297C101.883 15.1901 102.28 15.4049 102.801 15.5742C103.23 15.7174 103.725 15.8281 104.285 15.9062C104.858 15.9844 105.594 16.069 106.492 16.1602C107.755 16.3034 108.771 16.4401 109.539 16.5703C110.32 16.6875 111.056 16.8698 111.746 17.1172C112.788 17.4948 113.595 18.0417 114.168 18.7578C114.754 19.474 115.047 20.418 115.047 21.5898C115.047 22.7617 114.747 23.7904 114.148 24.6758C113.562 25.5482 112.697 26.2253 111.551 26.707C110.418 27.1888 109.057 27.4297 107.469 27.4297C106.062 27.4297 104.826 27.2344 103.758 26.8438C102.69 26.4531 101.759 25.8607 100.965 25.0664V26.1602C100.965 26.6159 100.854 26.9414 100.633 27.1367C100.411 27.332 100.034 27.4297 99.5 27.4297C98.9661 27.4297 98.5885 27.332 98.3672 27.1367C98.1458 26.9414 98.0352 26.6159 98.0352 26.1602V21.4727C98.0352 21.0169 98.1458 20.6914 98.3672 20.4961C98.5885 20.3008 98.9661 20.2031 99.5 20.2031C99.7734 20.2031 99.9883 20.2682 100.145 20.3984C100.301 20.5156 100.438 20.7174 100.555 21.0039C101.023 22.2539 101.805 23.1654 102.898 23.7383C103.992 24.3112 105.451 24.5977 107.273 24.5977C108.784 24.5977 109.943 24.3242 110.75 23.7773C111.557 23.2305 111.961 22.5013 111.961 21.5898C111.961 21.1471 111.818 20.7826 111.531 20.4961C111.245 20.2096 110.835 19.9753 110.301 19.793C109.845 19.6497 109.318 19.5326 108.719 19.4414C108.133 19.3372 107.384 19.2396 106.473 19.1484C105.249 19.0182 104.227 18.8815 103.406 18.7383C102.586 18.5951 101.831 18.3867 101.141 18.1133C100.19 17.7357 99.4479 17.2148 98.9141 16.5508C98.3932 15.8737 98.1328 14.9948 98.1328 13.9141C98.1328 12.7812 98.4258 11.8112 99.0117 11.0039C99.6107 10.1836 100.431 9.5651 101.473 9.14844C102.527 8.73177 103.719 8.52344 105.047 8.52344C106.31 8.52344 107.462 8.71224 108.504 9.08984C109.559 9.46745 110.464 9.99479 111.219 10.6719V9.79297C111.219 9.33724 111.329 9.01172 111.551 8.81641C111.772 8.62109 112.15 8.52344 112.684 8.52344ZM136.668 8.52344C137.202 8.52344 137.579 8.62109 137.801 8.81641C138.022 9.01172 138.133 9.33724 138.133 9.79297V13.5039C138.133 13.9596 138.022 14.2852 137.801 14.4805C137.579 14.6758 137.202 14.7734 136.668 14.7734C136.225 14.7734 135.913 14.6042 135.73 14.2656C135.171 13.1979 134.357 12.4492 133.289 12.0195C132.221 11.5768 130.867 11.3555 129.227 11.3555C127.964 11.3555 126.974 11.5833 126.258 12.0391C125.555 12.4818 125.203 13.1068 125.203 13.9141C125.203 14.3307 125.333 14.6693 125.594 14.9297C125.867 15.1901 126.264 15.4049 126.785 15.5742C127.215 15.7174 127.71 15.8281 128.27 15.9062C128.842 15.9844 129.578 16.069 130.477 16.1602C131.74 16.3034 132.755 16.4401 133.523 16.5703C134.305 16.6875 135.04 16.8698 135.73 17.1172C136.772 17.4948 137.579 18.0417 138.152 18.7578C138.738 19.474 139.031 20.418 139.031 21.5898C139.031 22.7617 138.732 23.7904 138.133 24.6758C137.547 25.5482 136.681 26.2253 135.535 26.707C134.402 27.1888 133.042 27.4297 131.453 27.4297C130.047 27.4297 128.81 27.2344 127.742 26.8438C126.674 26.4531 125.743 25.8607 124.949 25.0664V26.1602C124.949 26.6159 124.839 26.9414 124.617 27.1367C124.396 27.332 124.018 27.4297 123.484 27.4297C122.951 27.4297 122.573 27.332 122.352 27.1367C122.13 26.9414 122.02 26.6159 122.02 26.1602V21.4727C122.02 21.0169 122.13 20.6914 122.352 20.4961C122.573 20.3008 122.951 20.2031 123.484 20.2031C123.758 20.2031 123.973 20.2682 124.129 20.3984C124.285 20.5156 124.422 20.7174 124.539 21.0039C125.008 22.2539 125.789 23.1654 126.883 23.7383C127.977 24.3112 129.435 24.5977 131.258 24.5977C132.768 24.5977 133.927 24.3242 134.734 23.7773C135.542 23.2305 135.945 22.5013 135.945 21.5898C135.945 21.1471 135.802 20.7826 135.516 20.4961C135.229 20.2096 134.819 19.9753 134.285 19.793C133.829 19.6497 133.302 19.5326 132.703 19.4414C132.117 19.3372 131.368 19.2396 130.457 19.1484C129.233 19.0182 128.211 18.8815 127.391 18.7383C126.57 18.5951 125.815 18.3867 125.125 18.1133C124.174 17.7357 123.432 17.2148 122.898 16.5508C122.378 15.8737 122.117 14.9948 122.117 13.9141C122.117 12.7812 122.41 11.8112 122.996 11.0039C123.595 10.1836 124.415 9.5651 125.457 9.14844C126.512 8.73177 127.703 8.52344 129.031 8.52344C130.294 8.52344 131.447 8.71224 132.488 9.08984C133.543 9.46745 134.448 9.99479 135.203 10.6719V9.79297C135.203 9.33724 135.314 9.01172 135.535 8.81641C135.757 8.62109 136.134 8.52344 136.668 8.52344ZM154.578 8.52344C157.026 8.52344 158.862 9.07031 160.086 10.1641C161.31 11.2578 161.922 12.8789 161.922 15.0273V22.8008C161.922 23.8294 162.352 24.3438 163.211 24.3438H163.895C164.337 24.3438 164.65 24.4479 164.832 24.6562C165.027 24.8516 165.125 25.1901 165.125 25.6719C165.125 26.1536 165.027 26.4987 164.832 26.707C164.65 26.9023 164.337 27 163.895 27H162.645C161.798 27 161.069 26.7917 160.457 26.375C159.858 25.9453 159.467 25.3203 159.285 24.5C158.217 25.4375 157.059 26.1602 155.809 26.668C154.572 27.1758 153.257 27.4297 151.863 27.4297C150.548 27.4297 149.383 27.2083 148.367 26.7656C147.365 26.3099 146.577 25.6523 146.004 24.793C145.431 23.9336 145.145 22.9115 145.145 21.7266C145.145 19.6693 145.88 18.1523 147.352 17.1758C148.823 16.1862 150.724 15.6914 153.055 15.6914C155.125 15.6914 157.104 16.0234 158.992 16.6875V15.0273C158.992 13.7643 158.634 12.8398 157.918 12.2539C157.215 11.6549 156.076 11.3555 154.5 11.3555C153.523 11.3555 152.508 11.4922 151.453 11.7656C150.398 12.0391 149.396 12.4167 148.445 12.8984C148.224 13.0156 148.022 13.0742 147.84 13.0742C147.41 13.0742 147.052 12.7617 146.766 12.1367C146.622 11.8242 146.551 11.5638 146.551 11.3555C146.551 10.8997 146.792 10.5482 147.273 10.3008C148.367 9.72786 149.539 9.29167 150.789 8.99219C152.052 8.67969 153.315 8.52344 154.578 8.52344ZM153.074 18.4453C151.577 18.4453 150.392 18.7057 149.52 19.2266C148.66 19.7344 148.23 20.5482 148.23 21.668C148.23 22.6185 148.556 23.3607 149.207 23.8945C149.871 24.4154 150.796 24.6758 151.98 24.6758C154.572 24.6758 156.909 23.6016 158.992 21.4531V19.3242C158.107 19.0378 157.156 18.8229 156.141 18.6797C155.125 18.5234 154.103 18.4453 153.074 18.4453ZM208.895 3.38672C209.428 3.38672 209.806 3.48438 210.027 3.67969C210.249 3.875 210.359 4.20052 210.359 4.65625V9.14844C210.359 9.60417 210.249 9.92969 210.027 10.125C209.806 10.3203 209.428 10.418 208.895 10.418C208.4 10.418 208.061 10.2487 207.879 9.91016C207.254 8.72526 206.375 7.82682 205.242 7.21484C204.109 6.58984 202.82 6.27734 201.375 6.27734C199.943 6.27734 198.829 6.60938 198.035 7.27344C197.254 7.9375 196.863 8.82943 196.863 9.94922C196.863 10.4831 197 10.9323 197.273 11.2969C197.547 11.6615 197.938 11.974 198.445 12.2344C198.901 12.4688 199.435 12.6641 200.047 12.8203C200.659 12.9635 201.479 13.1328 202.508 13.3281C203.628 13.5495 204.513 13.7383 205.164 13.8945C205.828 14.0378 206.479 14.2396 207.117 14.5C208.419 15.0339 209.435 15.7826 210.164 16.7461C210.906 17.6966 211.277 18.9857 211.277 20.6133C211.277 21.9674 210.958 23.1589 210.32 24.1875C209.682 25.2031 208.738 25.9974 207.488 26.5703C206.251 27.1432 204.76 27.4297 203.016 27.4297C201.714 27.4297 200.503 27.1953 199.383 26.7266C198.276 26.2448 197.312 25.5482 196.492 24.6367V26.1602C196.492 26.6159 196.382 26.9414 196.16 27.1367C195.939 27.332 195.561 27.4297 195.027 27.4297C194.493 27.4297 194.116 27.332 193.895 27.1367C193.673 26.9414 193.562 26.6159 193.562 26.1602V20.3008C193.562 19.8451 193.673 19.5195 193.895 19.3242C194.116 19.1289 194.493 19.0312 195.027 19.0312C195.587 19.0312 195.965 19.3047 196.16 19.8516C196.694 21.362 197.54 22.5208 198.699 23.3281C199.871 24.1354 201.31 24.5391 203.016 24.5391C204.682 24.5391 205.958 24.181 206.844 23.4648C207.742 22.7487 208.191 21.7982 208.191 20.6133C208.191 19.793 207.983 19.1289 207.566 18.6211C207.163 18.1003 206.57 17.6706 205.789 17.332C205.294 17.1107 204.754 16.9349 204.168 16.8047C203.582 16.6615 202.781 16.4857 201.766 16.2773C200.698 16.069 199.799 15.8737 199.07 15.6914C198.354 15.5091 197.69 15.2812 197.078 15.0078C196.036 14.5391 195.223 13.9076 194.637 13.1133C194.064 12.306 193.777 11.2513 193.777 9.94922C193.777 8.60807 194.096 7.44271 194.734 6.45312C195.385 5.46354 196.284 4.70833 197.43 4.1875C198.589 3.65365 199.904 3.38672 201.375 3.38672C202.521 3.38672 203.628 3.60807 204.695 4.05078C205.763 4.49349 206.674 5.09245 207.43 5.84766V4.65625C207.43 4.20052 207.54 3.875 207.762 3.67969C207.983 3.48438 208.361 3.38672 208.895 3.38672ZM226.453 8.52344C228.237 8.52344 229.845 8.92708 231.277 9.73438C232.71 10.5417 233.829 11.668 234.637 13.1133C235.457 14.5456 235.867 16.1667 235.867 17.9766C235.867 19.7865 235.457 21.4141 234.637 22.8594C233.829 24.2917 232.71 25.4115 231.277 26.2188C229.845 27.026 228.237 27.4297 226.453 27.4297C224.669 27.4297 223.061 27.026 221.629 26.2188C220.197 25.4115 219.07 24.2917 218.25 22.8594C217.443 21.4141 217.039 19.7865 217.039 17.9766C217.039 16.1667 217.443 14.5456 218.25 13.1133C219.07 11.668 220.197 10.5417 221.629 9.73438C223.061 8.92708 224.669 8.52344 226.453 8.52344ZM226.453 11.4141C225.19 11.4141 224.077 11.694 223.113 12.2539C222.163 12.8008 221.427 13.5755 220.906 14.5781C220.385 15.5677 220.125 16.7005 220.125 17.9766C220.125 19.2526 220.385 20.3919 220.906 21.3945C221.427 22.3841 222.163 23.1589 223.113 23.7188C224.077 24.2656 225.19 24.5391 226.453 24.5391C227.716 24.5391 228.823 24.2656 229.773 23.7188C230.737 23.1589 231.479 22.3841 232 21.3945C232.521 20.3919 232.781 19.2526 232.781 17.9766C232.781 16.7005 232.521 15.5677 232 14.5781C231.479 13.5755 230.737 12.8008 229.773 12.2539C228.823 11.694 227.716 11.4141 226.453 11.4141ZM256.727 8.95312C257.169 8.95312 257.482 9.05729 257.664 9.26562C257.859 9.46094 257.957 9.79948 257.957 10.2812V24.3438H259.559C260.001 24.3438 260.314 24.4479 260.496 24.6562C260.691 24.8516 260.789 25.1901 260.789 25.6719C260.789 26.1536 260.691 26.4987 260.496 26.707C260.314 26.9023 260.001 27 259.559 27H256.453C256.01 27 255.691 26.9023 255.496 26.707C255.314 26.5117 255.223 26.1732 255.223 25.6914V23.3281C254.363 24.6562 253.354 25.6719 252.195 26.375C251.049 27.0781 249.812 27.4297 248.484 27.4297C247.299 27.4297 246.271 27.1758 245.398 26.668C244.526 26.1471 243.855 25.4049 243.387 24.4414C242.918 23.4779 242.684 22.3516 242.684 21.0625V11.6094H241.082C240.639 11.6094 240.32 11.5117 240.125 11.3164C239.943 11.1081 239.852 10.763 239.852 10.2812C239.852 9.79948 239.943 9.46094 240.125 9.26562C240.32 9.05729 240.639 8.95312 241.082 8.95312H244.383C244.826 8.95312 245.138 9.05729 245.32 9.26562C245.516 9.46094 245.613 9.79948 245.613 10.2812V20.7695C245.613 21.9284 245.88 22.8464 246.414 23.5234C246.948 24.2005 247.736 24.5391 248.777 24.5391C249.884 24.5391 250.913 24.2201 251.863 23.582C252.827 22.944 253.595 22.0651 254.168 20.9453C254.741 19.8255 255.027 18.5755 255.027 17.1953V11.6094H252.254C251.811 11.6094 251.492 11.5117 251.297 11.3164C251.115 11.1081 251.023 10.763 251.023 10.2812C251.023 9.79948 251.115 9.46094 251.297 9.26562C251.492 9.05729 251.811 8.95312 252.254 8.95312H256.727ZM281.512 8.95312C281.954 8.95312 282.267 9.05729 282.449 9.26562C282.645 9.46094 282.742 9.79948 282.742 10.2812C282.742 10.6589 282.645 10.9583 282.449 11.1797L270.535 24.3438H280.008V20.9844C280.008 20.5286 280.118 20.2031 280.34 20.0078C280.561 19.8125 280.939 19.7148 281.473 19.7148C282.007 19.7148 282.384 19.8125 282.605 20.0078C282.827 20.2031 282.938 20.5286 282.938 20.9844V25.6719C282.938 26.1536 282.84 26.4987 282.645 26.707C282.462 26.9023 282.15 27 281.707 27H267.137C266.694 27 266.375 26.9023 266.18 26.707C265.997 26.4987 265.906 26.1536 265.906 25.6719C265.906 25.2812 265.997 24.9883 266.18 24.793L278.113 11.6094H269.227V14.5195C269.227 14.9753 269.116 15.3008 268.895 15.4961C268.673 15.6914 268.296 15.7891 267.762 15.7891C267.228 15.7891 266.85 15.6914 266.629 15.4961C266.408 15.3008 266.297 14.9753 266.297 14.5195V10.2812C266.297 9.79948 266.388 9.46094 266.57 9.26562C266.766 9.05729 267.085 8.95312 267.527 8.95312H281.512ZM298.484 8.52344C300.932 8.52344 302.768 9.07031 303.992 10.1641C305.216 11.2578 305.828 12.8789 305.828 15.0273V22.8008C305.828 23.8294 306.258 24.3438 307.117 24.3438H307.801C308.243 24.3438 308.556 24.4479 308.738 24.6562C308.934 24.8516 309.031 25.1901 309.031 25.6719C309.031 26.1536 308.934 26.4987 308.738 26.707C308.556 26.9023 308.243 27 307.801 27H306.551C305.704 27 304.975 26.7917 304.363 26.375C303.764 25.9453 303.374 25.3203 303.191 24.5C302.124 25.4375 300.965 26.1602 299.715 26.668C298.478 27.1758 297.163 27.4297 295.77 27.4297C294.454 27.4297 293.289 27.2083 292.273 26.7656C291.271 26.3099 290.483 25.6523 289.91 24.793C289.337 23.9336 289.051 22.9115 289.051 21.7266C289.051 19.6693 289.786 18.1523 291.258 17.1758C292.729 16.1862 294.63 15.6914 296.961 15.6914C299.031 15.6914 301.01 16.0234 302.898 16.6875V15.0273C302.898 13.7643 302.54 12.8398 301.824 12.2539C301.121 11.6549 299.982 11.3555 298.406 11.3555C297.43 11.3555 296.414 11.4922 295.359 11.7656C294.305 12.0391 293.302 12.4167 292.352 12.8984C292.13 13.0156 291.928 13.0742 291.746 13.0742C291.316 13.0742 290.958 12.7617 290.672 12.1367C290.529 11.8242 290.457 11.5638 290.457 11.3555C290.457 10.8997 290.698 10.5482 291.18 10.3008C292.273 9.72786 293.445 9.29167 294.695 8.99219C295.958 8.67969 297.221 8.52344 298.484 8.52344ZM296.98 18.4453C295.483 18.4453 294.298 18.7057 293.426 19.2266C292.566 19.7344 292.137 20.5482 292.137 21.668C292.137 22.6185 292.462 23.3607 293.113 23.8945C293.777 24.4154 294.702 24.6758 295.887 24.6758C298.478 24.6758 300.815 23.6016 302.898 21.4531V19.3242C302.013 19.0378 301.062 18.8229 300.047 18.6797C299.031 18.5234 298.009 18.4453 296.98 18.4453Z" fill="black"/>
</svg>
