<svg width="50" height="50" viewBox="0 0 50 50" fill="none" xmlns="http://www.w3.org/2000/svg">
<path d="M25.348 0.157001C11.748 0.157001 0.723007 11.184 0.723007 24.782C0.723007 38.382 11.748 49.405 25.348 49.405C38.948 49.405 49.971 38.382 49.971 24.782C49.971 11.184 38.947 0.157001 25.348 0.157001ZM37.752 19.817C37.765 20.083 37.77 20.35 37.77 20.62C37.77 28.821 31.528 38.276 20.114 38.276C16.61 38.276 13.347 37.249 10.601 35.489C11.087 35.546 11.58 35.575 12.081 35.575C14.989 35.575 17.665 34.583 19.788 32.919C17.073 32.868 14.782 31.073 13.992 28.608C14.37 28.682 14.759 28.719 15.159 28.719C15.725 28.719 16.273 28.645 16.794 28.502C13.954 27.932 11.815 25.422 11.815 22.418C11.815 22.391 11.815 22.365 11.816 22.338C12.652 22.803 13.609 23.082 14.627 23.115C12.961 22 11.866 20.103 11.866 17.949C11.866 16.812 12.172 15.745 12.706 14.829C15.767 18.583 20.34 21.054 25.498 21.312C25.392 20.859 25.337 20.384 25.337 19.898C25.337 16.472 28.115 13.693 31.543 13.693C33.328 13.693 34.94 14.447 36.072 15.652C37.486 15.375 38.814 14.857 40.013 14.146C39.548 15.596 38.565 16.812 37.283 17.579C38.54 17.429 39.736 17.095 40.848 16.602C40.018 17.849 38.965 18.942 37.752 19.817Z" fill="black"/>
</svg>
